<?xml version="1.0" encoding="UTF-8"?> <svg xmlns="http://www.w3.org/2000/svg" width="49" height="48" viewBox="0 0 49 48" fill="none"><path d="M35.7463 17.6796C29.9792 17.6796 25.304 22.3548 25.304 28.122C25.304 31.1715 26.6123 33.9167 28.6956 35.8246C29.0186 36.1205 29.2347 36.4538 29.3225 36.796L30.2375 40.3648H41.2552L42.1702 36.796C42.258 36.4538 42.4741 36.1205 42.7971 35.8246C44.8804 33.9167 46.1887 31.1715 46.1887 28.122C46.1887 22.3548 41.5135 17.6796 35.7463 17.6796ZM40.7935 42.1652H30.6992L31.1478 43.915C31.5358 45.4281 32.8994 46.4862 34.4614 46.4862H37.0313C38.5933 46.4862 39.9569 45.4281 40.3449 43.915L40.7935 42.1652Z" fill="#207DE9"></path><circle cx="21.4614" cy="20.7642" r="19.2504" fill="#E9D4E9"></circle><path fill-rule="evenodd" clip-rule="evenodd" d="M29.5735 37.7746C36.3219 34.7827 41.0293 28.0248 41.0293 20.1675C41.0293 19.8078 41.0194 19.4503 40.9999 19.0953C39.4567 18.1952 37.6618 17.6796 35.7465 17.6796C29.9793 17.6796 25.3041 22.3548 25.3041 28.122C25.3041 31.1715 26.6124 33.9167 28.6957 35.8246C29.0188 36.1205 29.2348 36.4538 29.3226 36.796L29.5735 37.7746Z" fill="#AF3FAC"></path></svg> 