<?xml version="1.0" encoding="UTF-8"?> <svg xmlns="http://www.w3.org/2000/svg" width="49" height="48" viewBox="0 0 49 48" fill="none"><path fill-rule="evenodd" clip-rule="evenodd" d="M35.9516 19.4683C34.7551 19.4683 33.7852 20.4382 33.7852 21.6347V29.0226H26.3973C25.2008 29.0226 24.2308 29.9925 24.2308 31.189C24.2308 32.3855 25.2008 33.3555 26.3973 33.3555H33.7852V40.7434C33.7852 41.9398 34.7551 42.9098 35.9516 42.9098C37.1481 42.9098 38.118 41.9398 38.118 40.7434V33.3555H45.5059C46.7024 33.3555 47.6724 32.3855 47.6724 31.189C47.6724 29.9925 46.7024 29.0226 45.5059 29.0226H38.118V21.6347C38.118 20.4382 37.1481 19.4683 35.9516 19.4683Z" fill="#207DE9"></path><path d="M1.84595 5.08997H47.3544L41.3916 33.3661H7.80883L1.84595 5.08997Z" fill="#EBF5E0"></path><path fill-rule="evenodd" clip-rule="evenodd" d="M38.1179 33.3658H33.785V33.3552H26.3971C25.2007 33.3552 24.2307 32.3853 24.2307 31.1888C24.2307 29.9923 25.2007 29.0223 26.3971 29.0223H33.785V21.6345C33.785 20.438 34.755 19.468 35.9515 19.468C37.148 19.468 38.1179 20.438 38.1179 21.6345V29.0223H42.3075L41.3937 33.3552H38.1179V33.3658Z" fill="#B6E684"></path></svg> 