<?xml version="1.0" encoding="UTF-8"?> <svg xmlns="http://www.w3.org/2000/svg" width="49" height="48" viewBox="0 0 49 48" fill="none"><rect width="45.3292" height="22.6862" transform="matrix(-1 8.74228e-08 8.74228e-08 1 46.8643 24.1223)" fill="#FDEAD2"></rect><rect x="17.2681" y="14.502" width="14.0088" height="5.37122" fill="#FDEAD2"></rect><path d="M17.1184 11.6847C15.418 11.6847 14.0396 13.0631 14.0396 14.7636V33.2368C14.0396 34.9372 15.418 36.3157 17.1184 36.3157H33.4364C33.9466 36.3157 34.3601 35.9021 34.3601 35.392C34.3601 34.8819 33.9466 34.4683 33.4364 34.4683H17.1184C16.4383 34.4683 15.8869 33.9169 15.8869 33.2368H33.4364C33.9466 33.2368 34.3601 32.8232 34.3601 32.3131V14.7636C34.3601 13.0631 32.9816 11.6847 31.2812 11.6847H17.1184ZM18.9657 15.3793H28.8181C29.4983 15.3793 30.0497 15.9307 30.0497 16.6109V17.8424C30.0497 18.5226 29.4983 19.074 28.8181 19.074H18.9657C18.2856 19.074 17.7342 18.5226 17.7342 17.8424V16.6109C17.7342 15.9307 18.2856 15.3793 18.9657 15.3793Z" fill="#207DE9"></path><path fill-rule="evenodd" clip-rule="evenodd" d="M34.3601 24.1226L14.0396 24.1226V33.237C14.0396 34.9374 15.418 36.3159 17.1184 36.3159H33.4364C33.9466 36.3159 34.3601 35.9024 34.3601 35.3922C34.3601 34.8821 33.9466 34.4686 33.4364 34.4686H17.1184C16.4383 34.4686 15.8869 33.9172 15.8869 33.237H33.4364C33.9466 33.237 34.3601 32.8235 34.3601 32.3134V24.1226Z" fill="#FFA232"></path></svg> 