<?xml version="1.0" encoding="UTF-8"?> <svg xmlns="http://www.w3.org/2000/svg" width="49" height="48" viewBox="0 0 49 48" fill="none"><rect x="24.8" y="46.6648" width="45.3292" height="22.6862" transform="rotate(-90 24.8 46.6648)" fill="#E9D4E9"></rect><path d="M10.811 15.9567C10.811 14.2185 12.2202 12.8093 13.9584 12.8093H35.6416C37.3799 12.8093 38.789 14.2185 38.789 15.9567V28.5463C38.789 30.2846 37.3799 31.6937 35.6416 31.6937H13.9584C12.2202 31.6937 10.811 30.2846 10.811 28.5463V15.9567ZM9.06299 33.0926C8.48357 33.0926 8.01385 33.5623 8.01385 34.1417C8.01385 34.7211 8.48357 35.1909 9.06299 35.1909H40.537C41.1164 35.1909 41.5862 34.7211 41.5862 34.1417C41.5862 33.5623 41.1164 33.0926 40.537 33.0926H9.06299Z" fill="#207DE9"></path><path fill-rule="evenodd" clip-rule="evenodd" d="M24.8 31.6935V12.8091H35.6415C37.3798 12.8091 38.7889 14.2182 38.7889 15.9565V28.5461C38.7889 30.2844 37.3798 31.6935 35.6415 31.6935H24.8ZM24.8 35.1906V33.0923H40.5369C41.1163 33.0923 41.586 33.5621 41.586 34.1415C41.586 34.7209 41.1163 35.1906 40.5369 35.1906H24.8Z" fill="#AF3FAC"></path></svg> 