<?xml version="1.0" encoding="UTF-8"?> <svg xmlns="http://www.w3.org/2000/svg" width="49" height="48" viewBox="0 0 49 48" fill="none"><path d="M1.1499 41.0248L24.8436 47.0248L24.8436 0.974779L1.1499 6.97478L1.1499 41.0248Z" fill="#E9D4E9"></path><path fill-rule="evenodd" clip-rule="evenodd" d="M7.37012 24.3907C7.37012 25.0367 7.89383 25.5604 8.53986 25.5604L30.0309 25.5604C30.6769 25.5604 31.2006 25.0367 31.2006 24.3907C31.2006 23.7447 30.6769 23.2209 30.0309 23.2209L8.53986 23.2209C7.89383 23.2209 7.37012 23.7447 7.37012 24.3907Z" fill="#207DE9"></path><path fill-rule="evenodd" clip-rule="evenodd" d="M13.6475 18.0752C14.0781 18.0752 14.4273 17.726 14.4273 17.2953C14.4273 16.8646 14.0781 16.5155 13.6475 16.5155C13.2168 16.5155 12.8676 16.8646 12.8676 17.2953C12.8676 17.726 13.2168 18.0752 13.6475 18.0752ZM16.7668 17.2953C16.7668 18.6044 15.9603 19.7252 14.8172 20.1879L14.8172 23.2209L18.5768 23.2209C18.5773 23.2209 18.5778 23.2209 18.5783 23.2209C18.5788 23.2209 18.5793 23.2209 18.5798 23.2209L24.8436 23.2209L24.8436 25.5604L19.7481 25.5604L19.7481 27.6685C20.8912 28.1313 21.6977 29.252 21.6977 30.5611C21.6977 32.2839 20.3011 33.6804 18.5784 33.6804C16.8556 33.6804 15.4591 32.2839 15.4591 30.5611C15.4591 29.252 16.2654 28.1313 17.4086 27.6686L17.4086 25.5604L9.41158 25.5604C8.94884 26.7036 7.8281 27.51 6.51902 27.51C4.79628 27.51 3.39972 26.1134 3.39972 24.3907C3.39972 22.6679 4.79628 21.2714 6.51902 21.2714C7.82811 21.2714 8.94885 22.0778 9.41158 23.2209L12.4777 23.2209L12.4777 20.1879C11.3346 19.7251 10.5282 18.6044 10.5282 17.2953C10.5282 15.5726 11.9247 14.176 13.6475 14.176C15.3702 14.176 16.7668 15.5726 16.7668 17.2953ZM6.51902 25.1705C6.94971 25.1705 7.29885 24.8214 7.29885 24.3907C7.29885 23.96 6.9497 23.6108 6.51902 23.6108C6.08833 23.6108 5.73919 23.96 5.73919 24.3907C5.73919 24.8214 6.08834 25.1705 6.51902 25.1705ZM17.7985 30.5611C17.7985 30.1304 18.1477 29.7813 18.5784 29.7813C19.009 29.7813 19.3582 30.1304 19.3582 30.5611C19.3582 30.9918 19.009 31.3409 18.5784 31.3409C18.1477 31.3409 17.7985 30.9918 17.7985 30.5611Z" fill="#AF3FAC"></path><rect width="18.448" height="14.7577" rx="3" transform="matrix(1 -8.74228e-08 -8.74228e-08 -1 29.2009 31.7695)" fill="#207DE9"></rect><path d="M40.9723 20.0898L37.0702 29.2034C36.9287 29.5338 36.5462 29.6869 36.2158 29.5455C35.909 29.4141 35.7551 29.0749 35.8479 28.7626L35.8737 28.6911L39.7758 19.5775C39.9173 19.2471 40.2998 19.0939 40.6302 19.2354C40.937 19.3668 41.0909 19.706 40.9981 20.0183L40.9723 20.0898L37.0702 29.2034L40.9723 20.0898ZM44.7419 24.8521L42.1388 27.4551C41.8847 27.7093 41.4727 27.7093 41.2185 27.4551C40.9839 27.2205 40.9659 26.8514 41.1644 26.5961L41.2185 26.5348L43.3614 24.3919L41.2185 22.249C40.9644 21.9949 40.9644 21.5828 41.2185 21.3287C41.4531 21.0941 41.8222 21.0761 42.0775 21.2746L42.1388 21.3287L44.7419 23.9318C44.9765 24.1663 44.9945 24.5355 44.796 24.7908L44.7419 24.8521L42.1388 27.4551L44.7419 24.8521ZM35.6317 27.4559C35.3971 27.6905 35.028 27.7085 34.7727 27.51L34.7114 27.4559L32.1078 24.852C31.8732 24.6173 31.8552 24.248 32.054 23.9927L32.1082 23.9314L34.7118 21.3313C34.9661 21.0773 35.3781 21.0776 35.6321 21.3319C35.8665 21.5667 35.8843 21.9358 35.6856 22.191L35.6315 22.2522L33.4886 24.3922L35.6318 26.5356C35.8859 26.7898 35.8859 27.2018 35.6317 27.4559Z" fill="#E9D4E9"></path></svg> 