<?xml version="1.0" encoding="UTF-8"?> <svg xmlns="http://www.w3.org/2000/svg" width="49" height="48" viewBox="0 0 49 48" fill="none"><g clip-path="url(#clip0_219_13620)"><circle cx="23.0217" cy="21.6528" r="19.6174" fill="#FDEAD2"></circle><path d="M43.4608 18.1621C45.5203 22.5129 46.5357 28.0741 45.8011 32.7935C45.4321 35.1636 44.6078 37.4064 43.1633 39.1673C41.6964 40.9556 39.6461 42.1746 37.0005 42.5375C35.5919 42.7307 34.282 42.6718 33.0802 42.4171C32.4442 42.2823 30.5803 41.8273 30.5803 41.8273C30.5803 41.8273 28.4375 44.1932 27.1522 45.385C26.6878 45.8156 25.9622 45.7882 25.5316 45.3238C25.1009 44.8593 25.1283 44.1337 25.5927 43.7031C26.7828 42.5997 27.838 41.4944 28.7722 40.4121C27.793 39.6564 26.9607 38.7565 26.2875 37.788C25.2343 36.2727 24.5478 34.5634 24.2785 32.9175C24.0123 31.2903 24.1371 29.6033 24.867 28.2268C25.8191 26.4315 26.8609 25.2396 28.0808 24.3897C29.2709 23.5605 30.5505 23.1182 31.8021 22.7103C31.9325 22.6677 32.0642 22.6252 32.1973 22.5821C34.5832 21.8108 37.4063 20.8981 41.2435 17.6774C41.5838 17.3918 42.0372 17.2801 42.4712 17.375C42.9052 17.4698 43.2707 17.7605 43.4608 18.1621Z" fill="#207DE9"></path><path fill-rule="evenodd" clip-rule="evenodd" d="M28.7695 40.4144C36.7994 37.9575 42.6391 30.487 42.6391 21.6525C42.6391 20.1714 42.475 18.7285 42.1639 17.3412C41.8304 17.3415 41.5037 17.4582 41.2434 17.6768C37.4061 20.8975 34.5831 21.8101 32.1972 22.5815C32.0641 22.6245 31.9324 22.6671 31.8019 22.7096C30.5503 23.1176 29.2707 23.5599 28.0806 24.3891C26.8608 25.239 25.8189 26.4309 24.8669 28.2261C24.1369 29.6026 24.0122 31.2897 24.2784 32.9168C24.5476 34.5628 25.2342 36.272 26.2874 37.7874C26.9605 38.7559 27.7929 39.6557 28.772 40.4115C28.7712 40.4124 28.7703 40.4134 28.7695 40.4144Z" fill="#FFA232"></path></g><defs><clipPath id="clip0_219_13620"><rect width="48" height="48" fill="white" transform="translate(0.599609)"></rect></clipPath></defs></svg> 