<?xml version="1.0" standalone="no"?><svg xmlns="http://www.w3.org/2000/svg" viewBox="0 0 1440 320"><path fill="#3b7fbf" fill-opacity="1" d="M0,256L30,213.3C60,171,120,85,180,80C240,75,300,149,360,192C420,235,480,245,540,234.7C600,224,660,192,720,165.3C780,139,840,117,900,138.7C960,160,1020,224,1080,224C1140,224,1200,160,1260,144C1320,128,1380,160,1410,176L1440,192L1440,0L1410,0C1380,0,1320,0,1260,0C1200,0,1140,0,1080,0C1020,0,960,0,900,0C840,0,780,0,720,0C660,0,600,0,540,0C480,0,420,0,360,0C300,0,240,0,180,0C120,0,60,0,30,0L0,0Z"></path></svg>